<mxfile host="app.diagrams.net" modified="2024-01-21T15:08:07.462Z" agent="Mozilla/5.0 (Windows NT 10.0; Win64; x64) AppleWebKit/537.36 (KHTML, like Gecko) Chrome/120.0.0.0 Safari/537.36" etag="DHAsdlWbywoxknmIp0Vi" version="22.1.21" type="github">
  <diagram name="Page-1" id="p12fFURx2Rawlc6cIgyJ">
    <mxGraphModel dx="880" dy="434" grid="1" gridSize="10" guides="1" tooltips="1" connect="1" arrows="1" fold="1" page="1" pageScale="1" pageWidth="850" pageHeight="1100" math="0" shadow="0">
      <root>
        <mxCell id="0" />
        <mxCell id="1" parent="0" />
        <mxCell id="K_dfSoHOFGMGZxXX9tlw-1" value="" style="whiteSpace=wrap;html=1;aspect=fixed;" vertex="1" parent="1">
          <mxGeometry x="650" y="90" width="80" height="80" as="geometry" />
        </mxCell>
        <mxCell id="K_dfSoHOFGMGZxXX9tlw-2" value="" style="whiteSpace=wrap;html=1;aspect=fixed;" vertex="1" parent="1">
          <mxGeometry x="460" y="90" width="80" height="80" as="geometry" />
        </mxCell>
        <mxCell id="K_dfSoHOFGMGZxXX9tlw-3" value="" style="dashed=0;outlineConnect=0;html=1;align=center;labelPosition=center;verticalLabelPosition=bottom;verticalAlign=top;shape=mxgraph.webicons.netlog;fillColor=#FA3743;gradientColor=#E10E11" vertex="1" parent="1">
          <mxGeometry x="150" y="90" width="102.4" height="102.4" as="geometry" />
        </mxCell>
      </root>
    </mxGraphModel>
  </diagram>
</mxfile>
